# xmcd CD database file
#
# Track frame offsets:
#	182
#	35085
#	66257
#	92302
#	139757
#	163637
#	210552
#	250477
#	281527
#	313397
#
# Disc length: 4486 seconds
#
# Revision: 1
# Processed by: cddbd v1.5.1PL0 Copyright (c) Steve Scherf et al.
# Submitted via: CDex 1.51
#
DISCID=9311840a
DTITLE=Tom Davis - Restoring Passion and Releasing Power
DYEAR=1996
DGENRE=Christian-Worship
TTITLE0=We Will Ride
TTITLE1=We Will Dance
TTITLE2=Shout To The Lord
TTITLE3=His Banner Over Me
TTITLE4=Pour Out My Heart
TTITLE5=All Heaven Declares
TTITLE6=Yahweh
TTITLE7=You Are My King
TTITLE8=Exalt The Lord
TTITLE9=You're Worthy Of My Praise
EXTD=YEAR: 1996
EXTT0=
EXTT1=
EXTT2=
EXTT3=
EXTT4=
EXTT5=
EXTT6=
EXTT7=
EXTT8=
EXTT9=
PLAYORDER=
